<?xml version="1.0" encoding="UTF-8"?>
<svg id="Layer_1" data-name="Layer 1" xmlns="http://www.w3.org/2000/svg" viewBox="0 0 218.88 214.42">
  <defs>
    <style>
      .cls-1 {
        fill: none;
        stroke: #1a5632;
        stroke-miterlimit: 10;
        stroke-width: 5px;
      }

      .cls-2 {
        fill: #1a5632;
      }
    </style>
  </defs>
  <circle class="cls-1" cx="109.44" cy="107.21" r="88.17"/>
  <g>
    <path class="cls-2" d="M66.79,79.44c0-.54.29-1.03.74-1.32l7.86-5.77,2.85-2.09c.62-.51,1.53-.42,2.04.2.51.62.42,1.53-.2,2.04-.04.03-.08.06-.12.09l-10.81,7.91c-.45.38-1.09.46-1.61.18-.46-.24-.75-.72-.75-1.24Z"/>
    <path class="cls-2" d="M71.26,91.4c-.62-.04-1.16-.43-1.39-1-.23-.61,0-1.3.54-1.67l4.17-3.07c2.22-1.63,4.44-3.27,6.66-4.89.61-.52,1.53-.45,2.04.16.52.61.45,1.53-.16,2.04-.05.04-.1.08-.15.11l-4.61,3.35c-2,1.5-4.08,3-6.14,4.49-.3.19-.63.35-.96.47Z"/>
    <path class="cls-2" d="M74.28,101.84c-.63-.02-1.2-.41-1.43-1-.21-.62.01-1.3.55-1.67,1.75-1.33,3.49-2.57,5.24-3.85s3.75-2.77,5.63-4.14c.61-.52,1.52-.45,2.04.16s.45,1.52-.16,2.04c-.06.06-.13.11-.21.15l-7.42,5.46c-1.09.8-2.18,1.61-3.28,2.4-.31.17-.64.32-.97.45Z"/>
    <path class="cls-2" d="M163.5,81.84c0,.92-.73,1.66-1.65,1.67-.92,0-1.66-.73-1.67-1.65,0-.91.73-1.66,1.64-1.67.91-.02,1.66.71,1.68,1.62,0,.01,0,.02,0,.03Z"/>
    <path class="cls-2" d="M61.25,112.31c3.24.02,6.15,1.99,7.37,5,.27.56.14,1.23-.31,1.66-.42.44-1.07.54-1.6.25-.31-.18-.57-.45-.73-.77-.71-1.81-2.38-3.06-4.32-3.24-.76-.06-1.53.05-2.25.32-.72.33-1.57.02-1.9-.7-.05-.1-.08-.2-.1-.3-.18-.73.24-1.46.95-1.69.92-.36,1.9-.54,2.89-.53Z"/>
    <path class="cls-2" d="M179.65,107.44c-.03-.7-.61-1.26-1.31-1.27-.69-.05-1.32.39-1.52,1.06-.83,1.96-1.91,3.8-3.2,5.49-.06.07-.13.14-.21.2-.39-6.23-2.45-12.24-5.95-17.4h.29c2.06-.11,3.82-1.5,4.4-3.48.39-1.56-.02-3.21-1.11-4.4-.23-.28-.47-.55-.72-.84.06-.04.12-.07.19-.09,2.69-.72,5.3-1.72,7.77-3,.59-.23.96-.82.92-1.46-.06-.66-.56-1.2-1.21-1.33l-8.47-2.62c-.4-.13-.79-.28-1.22-.43l.44-.62c1.24-1.54,2.1-3.35,2.52-5.29.37-1.59-.19-3.26-1.46-4.29-.84-.65-1.81-1.12-2.84-1.36-1.76-.59-3.7-.13-5,1.2-.06.05-.12.1-.19.14l-.23-.38c-.98-1.87-3.08-2.86-5.14-2.43-2.32.29-4.26,1.93-4.93,4.17-.02.06-.06.12-.1.17-.04,0-.09,0-.13,0-1.25-.6-2.69-.69-4-.23-.09,0-.27,0-.35-.13-.47-.43-.92-.87-1.36-1.32-.11-.12-.18-.28-.19-.44.01-.72-.02-1.44-.09-2.16-.7-3.89-4.42-6.48-8.31-5.78-2.47.44-4.53,2.15-5.43,4.5-.09.32-.38.55-.71.58-3.81.83-6.23,4.57-5.45,8.38.2.77.43,1.52.71,2.26-2.65,2-3.84,4.7-2.83,8,1.24,4,4.24,5.48,8.31,5.08l-.75,3.21c-.14-.01-.27-.03-.41-.06-1.53-.36-3.14-.24-4.6.34-2.85,1.02-4.88,3.57-5.24,6.57-.13.73-.28,1.45-.44,2.28-.93-1.55-2.33-2.77-4-3.47-.11-.08-.18-.22-.18-.36,0-1,0-2,.06-3,.04-.15.12-.28.24-.37.48-.36.93-.77,1.33-1.22,1.45-2.08.94-4.94-1.13-6.39-.18-.13-.37-.24-.57-.34-.71-.29-1.44-.54-2.18-.74v-30.88c-.02-3.66,2.94-6.64,6.6-6.66,2.97-.01,5.58,1.94,6.4,4.79.69,2.08,2.89,3.25,5,2.66,2.14-.57,3.46-2.72,3-4.89-1.77-7.96-9.66-12.98-17.62-11.21-.16.03-.31.07-.47.11-6.53,1.76-11.08,7.67-11.1,14.43v31.71h-2.56c-1.43,0-2.85,0-4.28-.05-1.23-.08-2.44.27-3.43,1-2.52,1.91-2.55,6,.32,7.52.13.1.21.25.23.41v2.92c0,.14-.08.27-.19.35-.3.16-.6.3-.91.42,0-.15-.09-.27-.12-.4-.43-1.62-.85-3.23-1.28-4.84-2.35-8.91-4.69-17.82-7-26.71-.67-2.95-2.34-5.59-4.72-7.46-2.76-2.24-6.35-3.2-9.87-2.64-1.53.28-3.05.64-4.55,1.07-6.89,1.77-11.08,8.75-9.4,15.66,1,4.27,2.22,8.5,3.33,12.75l.72,2.74c-3.19,1.35-5.67,3.37-6.71,6.83-.18-.15-.3-.28-.44-.38-.79-.57-1.62-1.08-2.47-1.55-1.65-.73-3.46-1.02-5.25-.86-1.92.11-3.81.54-5.59,1.25-.66.21-1.06.87-.95,1.55.22,1.09.41,2.18.73,3.24.59,2.18,1.75,4.17,3.35,5.77,2.39,2.29,5.79,3.19,9,2.4,1-.18,1.93-.48,2.93-.73l.45,1.59c-4.5,1.49-8.07,4.96-9.67,9.43-.11-.17-.22-.33-.34-.48-2.29-2.33-4.11-5.08-5.37-8.09-.22-.69-.91-1.11-1.62-1-.75.11-1.27.8-1.18,1.55.07,1.91.12,3.83.24,5.75.21,3,.64,5.98,1.27,8.92,5.3,24.64,23.31,44.6,47.29,52.37,6.37,2.07,13.01,3.2,19.71,3.36.23,0,.46,0,.7.07v2.68c.07.8.77,1.39,1.57,1.32.71-.06,1.27-.62,1.32-1.32h0v-2.73h.88c5.53-.17,11.03-1.01,16.36-2.5,25.71-7.15,45.19-28.19,50.33-54.38.56-2.77.92-5.56,1.1-8.38.14-1.52.25-5.38.24-5.41ZM55.15,101.94c-1.72.69-3.59.93-5.43.71-1.71-.3-3.22-1.28-4.21-2.7-1.03-1.47-1.76-3.14-2.12-4.9-.06-.23,0-.31.24-.37,1.26-.38,2.56-.58,3.87-.6,1.65-.1,3.29.36,4.65,1.31,1.23.94,2.13,2.25,2.57,3.73.25.76.42,1.55.6,2.34.05.16.13.38-.17.48ZM171.5,82.01l2,.64c-.11.08-.23.14-.35.19-1.76.73-3.6,1.21-5.49,1.45-.37.04-.74.04-1.11,0-.7-.12-1.39.27-1.64.94-.22.68.07,1.42.69,1.77.82.52,1.62,1.08,2.38,1.68.48.41.88.9,1.19,1.45.41.85.05,1.87-.8,2.28-.17.08-.36.14-.55.16-.7.05-1.39-.11-2-.46-1.23-.63-2.35-1.46-3.31-2.46-.31-.38-.78-.59-1.27-.58-.55,0-1.04.34-1.25.85-.26.54-.15,1.18.28,1.6.63.67,1.29,1.31,1.9,2,3.93,4.31,6.63,9.6,7.81,15.32.5,2.3.67,4.65.51,7-.02.21-.12.4-.28.54-3.46,3.15-7.81,5.15-12.45,5.73-2.55.31-5.14.16-7.64-.43l-.26-.08.39-.35c3.1-2.57,5.35-6.03,6.45-9.91.66-2.34.84-4.79.53-7.2-.01-.81-.68-1.46-1.49-1.45-.31,0-.62.11-.87.3-.42.29-.63.8-.55,1.3.68,4.8-.9,9.65-4.29,13.13-1.03,1.01-2.11,1.96-3.23,2.86-.17.17-.43.2-.63.07l-2.38-1.2c1-1.48,2-2.84,2.83-4.28,1.3-2.18,2.11-4.63,2.36-7.16.19-.78-.3-1.57-1.09-1.76-.57-.13-1.16.08-1.5.55-2.47,2.56-5.77,4.15-9.31,4.49h-.77c.23-.8.45-1.6.68-2.4.68-2.31,1.37-4.62,2-6.94.49-1.73.36-3.57-.35-5.22-.06-.14-.11-.28-.19-.48.72-.16,1.42-.33,2.13-.46,1.86-.34,3.75-.51,5.64-.48.63,0,1.26.07,1.88.13,1,.09,1.64-.3,1.81-1.14.04-.17.04-.35,0-.52-.48-2.39-.26-4.88.66-7.14,1.03-2.75,2.7-5.2,4.88-7.17.98-1,2.3-1.58,3.7-1.65.92,0,1.83.2,2.66.59,1.06.47,2.1,1,3.15,1.5,2.12.95,4.31,1.75,6.54,2.4ZM141.29,117.42c-1.34-1.06-2.57-2.26-3.66-3.58,2.67-.31,5.24-1.21,7.52-2.65-.91,2.29-2.22,4.39-3.86,6.23ZM147.15,77.21c1.05-1.64,1.41-3.63,1-5.54.42-.19.91-.19,1.33,0,1.26.48,2.37,1.3,3.19,2.37.24.35.59.6,1,.71.57.12,1.15-.12,1.48-.59.32-.48.32-1.11,0-1.59-.28-.42-.54-.85-.77-1.3-.57-.91-.3-2.1.6-2.68.03-.02.06-.04.09-.05.51-.36,1.08-.63,1.68-.8.78-.2,1.6.15,2,.86.7.95,1.15,2.07,1.3,3.24.01.58.35,1.09.88,1.33.48.25,1.06.18,1.46-.18.23-.23.41-.51.52-.81.25-.63.39-1.32.69-1.92.42-1.02,1.58-1.51,2.6-1.1.41.13.8.28,1.19.46.82.26,1.27,1.14,1.01,1.96,0,.01,0,.03-.01.04-.36,1.38-.99,2.68-1.87,3.81-.3.44-.64.85-1,1.28-1.13-.5-2.19-1-3.28-1.44-3-1.22-6.44-.51-8.71,1.8-.83.76-1.55,1.65-2.34,2.47-.09.1-.28.22-.38.19-1.34-.4-2.58-1.11-3.6-2.07-.1-.13-.12-.3-.06-.45ZM145.61,80.21l3.66,2.11c-1.75,2.98-2.62,6.4-2.49,9.85h-2c-2.66.1-5.29.51-7.85,1.23-.17.06-.36.04-.52-.05-.79-.65-1.7-1.16-2.67-1.5-.05-.02-.09-.05-.12-.08.25-1.1.51-2.19.77-3.31,3.07,2.09,6.17,2.31,9.09,0,2.67-2.21,3.21-5.12,2.16-8.25h-.03ZM126.15,82.51c-.91-2.17.1-4.67,2.27-5.58.08-.03.15-.06.23-.09.85-.31,1.27-.83,1.15-1.57-.09-.37-.26-.71-.51-1-.52-.57-.9-1.26-1.12-2-.64-2.28.69-4.64,2.97-5.27.33-.09.67-.14,1.01-.16,1.16,0,1.52-.35,1.76-1.52.37-1.95,2.02-3.39,4-3.51,2.42-.09,4.45,1.8,4.54,4.22,0,.03,0,.06,0,.08-.09.47-.16.94-.27,1.41-.25.74.13,1.54.85,1.83,2.12,1.04,2.99,3.6,1.95,5.72-.46.93-1.24,1.67-2.21,2.06l-.44.21c-.75.28-1.14,1.12-.85,1.88.09.24.24.45.43.61,1.21,1.14,1.61,2.91,1,4.46-.47,1.52-1.8,2.61-3.38,2.78-1.66.28-3.32-.48-4.2-1.91-.11-.19-.15-.42-.1-.64,1.19-5.22,2.41-10.42,3.62-15.63.25-.77-.17-1.6-.94-1.85-.02,0-.04-.01-.06-.02-.78-.2-1.56.27-1.76,1.05-.01.05-.02.1-.03.15l-3.59,15.71c-.03.31-.23.59-.51.73-2.13,1.04-4.7.15-5.73-1.98-.03-.05-.05-.11-.08-.17ZM121.39,109.28l2.32.59,1.58.41c.76.25,1.58-.16,1.83-.92.25-.76-.16-1.58-.92-1.83-.06-.02-.12-.04-.19-.05l-4.13-1c.1-.56.19-1.1.29-1.65.43-2.24.85-4.49,1.29-6.73.48-2.86,3.2-4.79,6.06-4.31.09.01.17.03.26.05.92.2,1.84.41,2.75.66,2.8.74,4.47,3.62,3.73,6.42-.03.13-.07.25-.12.38l-.08.19-2-.48-2.3-.58c-.75-.27-1.58.12-1.86.87-.27.75.12,1.58.87,1.86.1.03.2.06.3.07l3.9,1,.24.08c0,.06,0,.11,0,.17-.36,1.24-.72,2.49-1.17,3.77-.16-.34-.31-.68-.46-1-.18-.65-.77-1.1-1.44-1.1-.68.05-1.25.52-1.43,1.17-.71,1.74-1.64,3.38-2.75,4.89-1.77,2.48-3.99,4.62-6.53,6.31l-.35.21c-.14-3.15-.04-6.31.3-9.45ZM108.39,52.71c.02-5.81,4.16-10.79,9.87-11.87,5.95-.99,11.7,2.63,13.38,8.42.07.25.13.51.18.76.18.66-.22,1.34-.88,1.52-.66.18-1.34-.22-1.52-.88h0c-.35-1.1-.88-2.13-1.57-3.06-3.15-4.15-9.07-4.95-13.21-1.8-.22.17-.43.34-.64.53-2.1,1.87-3.28,4.57-3.23,7.38v30.75h-2.39v-.46c-.01-10.42-.02-20.85-.01-31.29h.02ZM97.05,87.63c.33-.2.71-.32,1.1-.34.64-.06,7.82.08,10.77.09,1.55,0,3.09,0,4.64.06.98-.01,1.83.69,2,1.66.14.56-.13,1.13-.65,1.38-.43.2-.9.32-1.38.33-2.46,0-4.93,0-7.39-.08l-7.81-.09c-.25,0-.5-.02-.74-.07-.61-.05-1.12-.48-1.26-1.08-.17-.71.11-1.45.72-1.86ZM113.05,93.7v2.48l-14.4-.18v-2.48l14.4.18ZM92.81,109.24c0-1.75,0-3.51.06-5.26.1-3.01,2.56-5.4,5.57-5.43,3.61,0,7.21.07,10.82.11l3.82.06c3,.06,5.41,2.47,5.47,5.47,0,2,0,4-.07,6,0,.06,0,.13,0,.19h-3.57c-.24,0-.35-.06-.4-.32-.87-4.82-5.48-8.02-10.3-7.15-3.47.63-6.24,3.25-7.06,6.68,0,.17-.07.35-.12.55h-3.44c-.79-.04-.79-.09-.78-.9ZM118.15,116.49v3.42c.03.28-.14.53-.41.61-3.1,1.34-6.46,1.93-9.83,1.74-5.46-.31-10.63-2.59-14.53-6.42-.11-.11-.17-.26-.18-.41v-2.06c0-.26.09-.32.34-.32h4.69c.77.1,1.47-.45,1.56-1.22.01-.09.01-.18,0-.27.18-3.31,3.01-5.85,6.31-5.67,2.88.16,5.25,2.34,5.63,5.21v.62c-.05.79.55,1.48,1.34,1.53.08,0,.17,0,.25,0h4.82v3.24ZM60.47,71.09c-1.32-5.41,1.97-10.88,7.37-12.25,1.38-.36,2.75-.78,4.15-1,2.88-.47,5.81.37,8,2.29,1.81,1.58,3.05,3.71,3.53,6.06,2.4,9.23,4.85,18.44,7.28,27.66.44,1.67.88,3.33,1.31,5,.04.15.02.31-.05.45-1.17,1.65-1.74,3.64-1.64,5.66,0,2.33,0,4.66-.08,7,0,.07,0,.15,0,.22h-.1c-.5-.83-1.05-1.65-1.51-2.51s-.83-1.69-1.22-2.55c-.23-.6-.8-.99-1.44-1-.66.06-1.22.5-1.43,1.12-.13.44-.3.87-.49,1.29-1.74,3.52-4.27,6.6-7.38,9l-.27.18h0c-.35-.87-.64-1.87-.99-2.73-.99-2.51-2.66-4.7-4.83-6.32-.27-.2-.46-.49-.53-.82-.76-2.91-1.53-5.82-2.28-8.73-.06-.23-.03-.48.07-.69,1.02-2.07,1.39-4.39,1.09-6.67-.15-1.58-.52-3.14-1.09-4.62-.17-.83-.99-1.36-1.81-1.18-.06.01-.13.03-.19.05l-1.47.25c0-.13-.09-.28-.13-.43-1.28-4.89-2.6-9.81-3.87-14.73ZM66.81,106.5c-2.31-.85-4.8-1.14-7.25-.84l-.51-1.75c2.31-.31,4.51-1.18,6.41-2.53l1.35,5.12ZM57.81,94.9c.42-1.6,1.43-2.97,2.82-3.86,1.49-1,3.18-1.68,4.95-2,.83,2.3.91,4.8.23,7.15-.74,2.02-2.4,3.57-4.47,4.16-.83.27-1.68.49-2.54.66-.11,0-.34-.07-.37-.16-.82-1.87-1.05-3.95-.66-5.95h.04ZM49.64,117.35c1.58-4.86,4.85-7.9,9.9-8.74,6.66-1.11,12.95,3.39,14.06,10.05,0,.03,0,.05.01.08.13.78.13.79-.57,1.14-2.52,1.3-5.28,2.09-8.11,2.32-.62,0-1.23.07-1.61.09-4.85.02-9.59-1.52-13.5-4.39-.2-.1-.28-.35-.18-.55ZM82.3,169.7c-22.7-9.82-38.23-31.24-40.5-55.86,5.35,7.07,12.17,11.22,21.07,11.29s15.78-4.02,21.28-10.93v1.45c.09,2.51.11,5,.31,7.52.21,2.67.52,5.34.9,8,.66,4.63,1.7,9.2,3.1,13.67,2.81,9.11,7.21,17.65,13,25.22,1.22,1.6,2.56,3.11,3.85,4.66l.38.44c-8.06-.4-15.99-2.25-23.39-5.46ZM109.3,174.22c-.08.09-.18.17-.3.28-.62-.66-1.23-1.31-1.82-2-6.01-6.81-10.77-14.64-14.03-23.12-2.11-5.45-3.68-11.1-4.68-16.86-.56-3.21-.95-6.45-1.19-9.7s-.28-6.52-.21-9.78c0-.1.03-.2.1-.28l.32.47c2.44,3.72,5.76,6.78,9.66,8.92,3.01,1.65,6.34,2.64,9.76,2.92,7.81.6,14.44-2,20.07-7.37,1.42-1.34,2.68-2.84,3.77-4.46.07-.1.15-.19.27-.34,0,.13,0,.25,0,.38,0,2.73,0,5.46-.16,8.18-.08,1.93-.29,3.85-.49,5.77-.35,3.17-.88,6.32-1.59,9.43-1.37,6.21-3.42,12.25-6.13,18-3.38,7.18-7.88,13.78-13.32,19.56h-.03ZM172.01,132.52c-9.76,24.69-33.08,41.37-59.6,42.64l2-2.34c3.79-4.48,7.06-9.37,9.74-14.59,3.73-7.28,6.43-15.06,8-23.09.73-3.58,1.23-7.21,1.5-10.86.16-2.32.25-4.65.34-7,0-1.08,0-2.16.09-3.29l.33.42c2.56,3.48,5.93,6.3,9.81,8.2,3.93,1.94,8.3,2.8,12.67,2.48,5.82-.41,11.32-2.81,15.58-6.8,1.36-1.25,2.59-2.64,3.68-4.14l.26-.33c.36,2.23-2.26,13.25-4.37,18.7h-.03Z"/>
  </g>
</svg>